<svg width="40" height="25" viewBox="0 0 40 25" fill="none" xmlns="http://www.w3.org/2000/svg">
<path d="M40 12.5C40 19.4036 31.0457 25 20 25C8.9543 25 0 19.4036 0 12.5C0 5.59644 8.9543 0 20 0C31.0457 0 40 5.59644 40 12.5Z" fill="#6772E5"/>
<path d="M19.1 14.9C19.1 15.9 18.2 16.5 16.6 16.5C14.7 16.5 13.1 15.8 12.3 15.2L12.8 13.8C13.5 14.3 14.9 15 16.4 15C17.3 15 17.6 14.7 17.6 14.4C17.6 14.1 17.4 13.9 16.7 13.6L15.3 13.1C13.9 12.6 13.1 11.6 13.1 10.4C13.1 8.7 14.6 7.6 16.9 7.6C18.6 7.6 19.9 8.2 20.6 8.7L20.1 10.1C19.4 9.6 18.4 9.1 17 9.1C16.1 9.1 15.8 9.4 15.8 9.7C15.8 10 16.1 10.2 16.7 10.4L18.1 10.9C19.6 11.5 20.4 12.4 20.4 13.6C20.4 13.8 20.3 14.1 20.3 14.3C19.9 14.5 19.5 14.7 19.1 14.9ZM23.4 16.3V9.5H21.5V8.1H23.4V5.7L24.9 5.3V8.1H27.3V9.5H24.9V14.7C24.9 15.3 25.2 15.5 25.7 15.5C26.1 15.5 26.4 15.4 26.6 15.3L26.7 16.5C26.3 16.6 25.8 16.7 25.2 16.7C23.9 16.7 23.4 16.2 23.4 14.7V16.3ZM28.5 7.8L30 7.4V9.2C30.4 8.5 31.2 7.6 32.7 7.6C32.9 7.6 33.2 7.6 33.4 7.7L33 9.1C32.7 9 32.5 9 32.2 9C31.2 9 30.4 9.7 30 11V16.3H28.5V7.8ZM34.7 6.4C34.7 5.8 35.1 5.4 35.7 5.4C36.3 5.4 36.7 5.8 36.7 6.4C36.7 7 36.3 7.4 35.7 7.4C35.1 7.4 34.7 7 34.7 6.4ZM34.9 16.3V7.8H36.4V16.3H34.9Z" fill="white"/>
</svg>
